<?xml version="1.0" encoding="UTF-8"?>
<!DOCTYPE svg PUBLIC "-//W3C//DTD SVG 1.1//EN" "http://www.w3.org/Graphics/SVG/1.1/DTD/svg11.dtd">
<!-- Creator: CorelDRAW 2019 (64 Bit Versão de avaliação) -->
<svg xmlns="http://www.w3.org/2000/svg" xml:space="preserve" width="8243.53mm" height="209.611mm" version="1.1" style="shape-rendering:geometricPrecision; text-rendering:geometricPrecision; image-rendering:optimizeQuality; fill-rule:evenodd; clip-rule:evenodd"
viewBox="0 0 540699.96 13748.56"
 xmlns:xlink="http://www.w3.org/1999/xlink">
 <defs>
  <style type="text/css">
   <![CDATA[
    .str0 {stroke:#00A859;stroke-width:277.67;stroke-miterlimit:22.9256}
    .fil0 {fill:none}
   ]]>
  </style>
 </defs>
 <g id="Camada_x0020_1">
  <metadata id="CorelCorpID_0Corel-Layer"/>
  <polyline class="fil0 str0" points="67668.67,427.41 61282.31,7091.43 57163.67,3489.1 52747.35,9931.42 49139.6,3883.47 43428.27,10590.05 38106.39,2352.38 35218.65,7961.27 27166.28,1685.98 21279.73,9682.81 16503.84,2741.12 10950.48,11237.76 6618.87,1963.65 121.42,13681.24 "/>
  <polyline class="fil0 str0" points="337878.39,232.95 331492.03,6896.97 327373.39,3294.63 322957.06,9736.95 319349.32,3689 313637.98,10395.59 308316.11,2157.92 305428.37,7766.81 297376,1491.51 291489.44,9488.35 286713.55,2546.65 281160.2,11043.29 276828.58,1769.19 270331.13,13486.77 "/>
  <polyline class="fil0 str0" points="202961.37,310.98 196575,6975 192456.37,3372.67 188040.04,9814.99 184432.29,3767.04 178720.96,10473.62 173399.09,2235.95 170511.34,7844.84 162458.98,1569.55 156572.42,9566.38 151796.53,2624.69 146243.18,11121.33 141911.56,1847.22 135414.11,13564.81 "/>
  <polyline class="fil0 str0" points="473171.09,116.52 466784.72,6780.54 462666.09,3178.2 458249.76,9620.52 454642.01,3572.57 448930.68,10279.16 443608.81,2041.49 440721.06,7650.38 432668.7,1375.08 426782.14,9371.92 422006.25,2430.22 416452.89,10926.86 412121.28,1652.76 405623.83,13370.34 "/>
  <polyline class="fil0 str0" points="67528.87,406.95 73915.24,7070.98 78033.88,3468.64 82450.2,9910.96 86057.95,3863.01 91769.28,10569.6 97091.16,2331.92 99978.9,7940.81 108031.27,1665.52 113917.82,9662.36 118693.71,2720.66 124247.07,11217.3 128578.68,1943.19 135076.13,13660.78 "/>
  <polyline class="fil0 str0" points="337738.59,212.49 344124.96,6876.51 348243.59,3274.17 352659.92,9716.5 356267.67,3668.55 361979,10375.13 367300.87,2137.46 370188.62,7746.35 378240.98,1471.06 384127.54,9467.89 388903.43,2526.2 394456.79,11022.83 398788.4,1748.73 405285.85,13466.31 "/>
  <polyline class="fil0 str0" points="202821.57,290.52 209207.93,6954.55 213326.57,3352.21 217742.9,9794.53 221350.65,3746.58 227061.98,10453.17 232383.85,2215.49 235271.6,7824.38 243323.96,1549.09 249210.52,9545.93 253986.41,2604.23 259539.76,11100.87 263871.38,1826.76 270368.83,13544.35 "/>
  <polyline class="fil0 str0" points="473031.29,96.06 479417.65,6760.08 483536.29,3157.74 487952.61,9600.06 491560.36,3552.12 497271.7,10258.7 502593.57,2021.03 505481.31,7629.92 513533.68,1354.63 519420.24,9351.46 524196.12,2409.77 529749.48,10906.4 534081.1,1632.3 540578.55,13349.88 "/>
 </g>
</svg>
